<svg width="674" height="674" viewBox="0 0 674 674" fill="none" xmlns="http://www.w3.org/2000/svg">
<rect x="260.785" y="9.69507" width="154.097" height="654.409" stroke="#E9C46A" stroke-opacity="0.6"/>
<rect x="349.027" y="0.612372" width="153.417" height="655.272" transform="rotate(15 349.027 0.612372)" stroke="#E9C46A" stroke-opacity="0.6"/>
<rect x="496.487" y="633.557" width="153.417" height="655.272" transform="rotate(165 496.487 633.557)" stroke="#E9C46A" stroke-opacity="0.6"/>
<rect x="568.128" y="582.325" width="153.417" height="655.272" transform="rotate(150 568.128 582.325)" stroke="#E9C46A" stroke-opacity="0.6"/>
<rect x="623.139" y="514.371" width="153.417" height="655.272" transform="rotate(135 623.139 514.371)" stroke="#E9C46A" stroke-opacity="0.6"/>
<rect x="659.852" y="434.325" width="153.417" height="655.272" transform="rotate(120 659.852 434.325)" stroke="#E9C46A" stroke-opacity="0.6"/>
<rect x="673.265" y="347.642" width="153.417" height="655.272" transform="rotate(105 673.265 347.642)" stroke="#E9C46A" stroke-opacity="0.6"/>
<rect x="665.038" y="259.851" width="154.097" height="654.409" transform="rotate(90 665.038 259.851)" stroke="#E9C46A" stroke-opacity="0.6"/>
<rect x="633.681" y="178.045" width="153.417" height="655.272" transform="rotate(75 633.681 178.045)" stroke="#E9C46A" stroke-opacity="0.6"/>
<rect x="583.637" y="106.689" width="153.417" height="655.272" transform="rotate(60 583.637 106.689)" stroke="#E9C46A" stroke-opacity="0.6"/>
<rect x="513.776" y="51.0234" width="153.417" height="655.272" transform="rotate(45 513.776 51.0234)" stroke="#E9C46A" stroke-opacity="0.6"/>
<rect x="435.578" y="14.8427" width="153.417" height="655.272" transform="rotate(30 435.578 14.8427)" stroke="#E9C46A" stroke-opacity="0.6"/>
</svg>
