<svg width="136" height="67" viewBox="0 0 136 67" fill="none" xmlns="http://www.w3.org/2000/svg">
<rect width="136" height="67" fill="#E9C46A"/>
<path d="M33.7693 26.366L34.9853 28.95L23.9273 34.346L34.9853 39.818L33.7693 42.364L21.1153 35.942V32.75L33.7693 26.366ZM61.6262 47H58.2442L57.4462 35.182C57.0916 29.8873 56.9016 26.2393 56.8762 24.238L51.8602 44.036H48.5542L43.3102 24.238C43.3356 26.442 43.1962 30.1153 42.8922 35.258L42.1322 47H38.7882L40.8022 20.856H45.4002L50.2642 40.198L54.9382 20.856H59.6122L61.6262 47ZM79.9399 20.856L79.5219 23.592H70.4779V32.218H78.3439V34.954H70.4779V44.226H80.0539V47H66.9439V20.856H79.9399ZM93.0024 16.334L95.8904 16.98L87.8344 50.914L84.9464 50.268L93.0024 16.334ZM102.228 26.366L114.882 32.75V35.942L102.228 42.364L101.012 39.818L112.07 34.346L101.012 28.95L102.228 26.366Z" fill="white"/>
</svg>
